<svg xmlns="http://www.w3.org/2000/svg" width="500" zoomAndPan="magnify"
     viewBox="0 0 375 374.999991" height="500" preserveAspectRatio="xMidYMid meet" version="1.0">
    <defs>
        <clipPath id="1c0fd01c38">
            <path d="M 100.199219 14.605469 L 244.195312 14.605469 L 244.195312 188.605469 L 100.199219 188.605469 Z M 100.199219 14.605469 "
                  clip-rule="nonzero"/>
        </clipPath>
        <clipPath id="7207e02ffb">
            <path d="M 239.171875 130.574219 C 242.203125 121.652344 244.191406 111.511719 244.191406 101.558594 C 244.191406 91.601562 242.488281 82.023438 239.457031 73.199219 C 239.363281 73.011719 239.363281 72.824219 239.269531 72.636719 C 227.148438 39.488281 195.152344 15.074219 159.308594 14.605469 L 100.199219 14.605469 L 100.199219 188.605469 L 159.265625 188.605469 C 195.339844 188.132812 227.339844 164.09375 239.171875 130.574219 Z M 239.171875 130.574219 "
                  clip-rule="nonzero"/>
        </clipPath>
        <clipPath id="9b47ce82a4">
            <path d="M 100.199219 183.449219 L 274.949219 183.449219 L 274.949219 349.949219 L 100.199219 349.949219 Z M 100.199219 183.449219 "
                  clip-rule="nonzero"/>
        </clipPath>
        <clipPath id="8ae745211d">
            <path d="M 269.910156 294.417969 C 272.949219 285.882812 274.945312 276.179688 274.945312 266.65625 C 274.945312 257.128906 273.234375 247.964844 270.195312 239.519531 C 270.101562 239.339844 270.101562 239.160156 270.003906 238.980469 C 257.847656 207.261719 225.738281 183.898438 189.101562 183.449219 L 100.199219 183.449219 L 100.199219 349.949219 L 189.035156 349.949219 C 225.929688 349.5 258.035156 326.496094 269.910156 294.417969 Z M 269.910156 294.417969 "
                  clip-rule="nonzero"/>
        </clipPath>
        <clipPath id="6990892d61">
            <path d="M 221.941406 75.074219 L 274.800781 75.074219 L 274.800781 127.933594 L 221.941406 127.933594 Z M 221.941406 75.074219 "
                  clip-rule="nonzero"/>
        </clipPath>
        <clipPath id="6dc9603ccd">
            <path d="M 248.371094 75.074219 L 274.800781 101.503906 L 248.371094 127.933594 L 221.941406 101.503906 Z M 248.371094 75.074219 "
                  clip-rule="nonzero"/>
        </clipPath>
        <clipPath id="aee1badb2e">
            <path d="M 221.941406 75.074219 L 274.441406 75.074219 L 274.441406 127.574219 L 221.941406 127.574219 Z M 221.941406 75.074219 "
                  clip-rule="nonzero"/>
        </clipPath>
        <clipPath id="7ab7b8b2c5">
            <path d="M 248.191406 75.074219 L 274.441406 101.324219 L 248.191406 127.574219 L 221.941406 101.324219 Z M 248.191406 75.074219 "
                  clip-rule="nonzero"/>
        </clipPath>
    </defs>
    <rect x="-37.5" width="450" fill="#ffffff" y="-37.499999" height="449.999989" fill-opacity="1"/>
    <rect x="-37.5" width="450" fill="#1e1e1e" y="-37.499999" height="449.999989" fill-opacity="1"/>
    <g clip-path="url(#1c0fd01c38)">
        <g clip-path="url(#7207e02ffb)">
            <path stroke-linecap="butt" transform="matrix(0, -0.749142, 0.748113, 0, 100.198731, 188.603952)"
                  fill="none" stroke-linejoin="miter"
                  d="M 77.461571 185.765 C 89.371025 189.816863 102.90734 192.474593 116.193369 192.474593 C 129.484612 192.474593 142.270068 190.198031 154.049165 186.146167 C 154.299452 186.020852 154.549738 186.020852 154.800024 185.895537 C 199.048548 169.693306 231.637905 126.92422 232.26362 79.011983 L 232.26362 0.000652348 L -0.00202516 0.000652348 L -0.00202516 78.954547 C 0.628905 127.174851 32.717688 169.949158 77.461571 185.765 Z M 77.461571 185.765 "
                  stroke="#ffffff" stroke-width="64" stroke-opacity="1" stroke-miterlimit="4"/>
        </g>
    </g>
    <g clip-path="url(#9b47ce82a4)">
        <g clip-path="url(#8ae745211d)">
            <path stroke-linecap="butt" transform="matrix(0, -0.749156, 0.750654, 0, 100.199763, 349.949742)"
                  fill="none" stroke-linejoin="miter"
                  d="M 74.12575 226.083279 C 85.518775 230.13183 98.470845 232.790969 111.183062 232.790969 C 123.900493 232.790969 136.133004 230.511707 147.406102 226.463156 C 147.645955 226.338265 147.885809 226.338265 148.125662 226.20817 C 190.464957 210.013965 221.651081 167.238785 222.250714 118.432407 L 222.250714 -0.000724661 L 0.000698212 -0.000724661 L 0.000698212 118.343943 C 0.600331 167.49377 31.306749 210.263748 74.12575 226.083279 Z M 74.12575 226.083279 "
                  stroke="#ffffff" stroke-width="64" stroke-opacity="1" stroke-miterlimit="4"/>
        </g>
    </g>
    <g clip-path="url(#6990892d61)">
        <g clip-path="url(#6dc9603ccd)">
            <path fill="#feb859"
                  d="M 221.941406 75.074219 L 274.800781 75.074219 L 274.800781 127.933594 L 221.941406 127.933594 Z M 221.941406 75.074219 "
                  fill-opacity="1" fill-rule="nonzero"/>
        </g>
    </g>
    <g clip-path="url(#aee1badb2e)">
        <g clip-path="url(#7ab7b8b2c5)">
            <path stroke-linecap="butt" transform="matrix(0.745011, 0, 0, 0.745011, 221.942157, 75.075317)" fill="none"
                  stroke-linejoin="miter"
                  d="M 35.233368 -0.0014737 L 70.467744 35.232902 L 35.233368 70.467278 L -0.00100787 35.232902 Z M 35.233368 -0.0014737 "
                  stroke="#1e1e1e" stroke-width="14" stroke-opacity="1" stroke-miterlimit="4"/>
        </g>
    </g>
</svg>